<?xml version="1.0" encoding="UTF-8"?><svg id="Laag_1" xmlns="http://www.w3.org/2000/svg" viewBox="0 0 135.05 96.28"><defs><style>.cls-1{stroke:#917175;stroke-miterlimit:10;}.cls-1,.cls-2{fill:#18144c;stroke-width:0px;}</style></defs><path class="cls-1" d="m109.53,34.84c1.26,1.25,3.38,3.6,5.24,5.26.58.53.66,1.14.24,1.84-.07.13-.22.2-.36.2-.78-.05-1.59.11-2.28.11-28.44,0-56.9-.02-85.34-.08-5.58-.01-11.22.02-13.78-6.01-.73-1.73-1.1-3.11-1.13-4.15-.24-10.14-.31-20.54-.23-31.21,0-.43-.34-.79-.78-.79H.63C.29,0,0,.28,0,.63,0,10.38,0,20.17.02,30.01c.01,8.78,2.21,16.32,10.31,20.84,6.01,3.35,10.77,3.26,18.86,3.26,28.57.02,56.98.02,85.21.01.89,0,1.34,1.08.71,1.7-12.57,12.59-25.04,25.06-37.41,37.42-.89.88-1.06,1.7-.58,2.82.05.13.16.21.31.21h10.42c.53.02,1.05-.2,1.43-.58,14.64-14.69,29.3-29.33,43.97-43.92,2.4-2.39,2.43-4.8-.03-7.26C118.44,29.75,103.73,15.04,89.09.4c-.26-.27-.59-.4-.96-.4h-10.6c-.28,0-.52.19-.59.46-.38,1.64.36,2.13,1.57,3.34,10.34,10.35,20.69,20.7,31.03,31.04"/><path class="cls-2" d="m109.53,34.84c1.26,1.25,3.38,3.6,5.24,5.26.58.53.66,1.14.24,1.84-.07.13-.22.2-.36.2-.78-.05-1.59.11-2.28.11-28.44,0-56.9-.02-85.34-.08-5.58-.01-11.22.02-13.78-6.01-.73-1.73-1.1-3.11-1.13-4.15-.24-10.14-.31-20.54-.23-31.21,0-.43-.34-.79-.78-.79H.63C.29,0,0,.28,0,.63,0,10.38,0,20.17.02,30.01c.01,8.78,2.21,16.32,10.31,20.84,6.01,3.35,10.77,3.26,18.86,3.26,28.57.02,56.98.02,85.21.01.89,0,1.34,1.08.71,1.7-12.57,12.59-25.04,25.06-37.41,37.42-.89.88-1.06,1.7-.58,2.82.05.13.16.21.31.21h10.42c.53.02,1.05-.2,1.43-.58,14.64-14.69,29.3-29.33,43.97-43.92,2.4-2.39,2.43-4.8-.03-7.26C118.44,29.75,103.73,15.04,89.09.4c-.26-.27-.59-.4-.96-.4h-10.6c-.28,0-.52.19-.59.46-.38,1.64.36,2.13,1.57,3.34,10.34,10.35,20.69,20.7,31.03,31.04h0Z"/><path class="cls-2" d="m109.53,34.84c-10.35-10.34-20.69-20.69-31.03-31.04-1.21-1.21-1.94-1.7-1.57-3.34.07-.27.31-.46.59-.46h10.6c.38,0,.7.13.96.4,14.64,14.64,29.35,29.35,44.12,44.12,2.46,2.46,2.43,4.87.03,7.26-14.67,14.58-29.33,29.22-43.97,43.92-.38.38-.9.59-1.43.59h-10.42c-.15-.01-.26-.09-.31-.22-.48-1.12-.3-1.94.58-2.82,12.36-12.36,24.83-24.83,37.41-37.42.63-.62.18-1.7-.71-1.7-28.24.01-56.64.01-85.21-.01-8.09,0-12.85.09-18.86-3.26C2.22,46.33.03,38.79.02,30.01,0,20.17,0,10.38,0,.63,0,.28.29,0,.63,0h10.49c.44,0,.78.36.78.79-.09,10.68-.01,21.07.23,31.21.02,1.04.4,2.43,1.13,4.15,2.56,6.04,8.2,6,13.78,6.01,28.44.06,56.9.08,85.34.08.68,0,1.5-.16,2.28-.11.14,0,.29-.07.36-.2.43-.7.35-1.31-.24-1.84-1.86-1.66-3.99-4-5.24-5.26h0Z"/></svg>