<?xml version="1.0" encoding="utf-8"?>
<!-- Generator: Adobe Illustrator 27.8.1, SVG Export Plug-In . SVG Version: 6.00 Build 0)  -->
<svg version="1.1" id="Laag_1" xmlns="http://www.w3.org/2000/svg" xmlns:xlink="http://www.w3.org/1999/xlink" x="0px" y="0px"
	 viewBox="0 0 382.7 176.5" style="enable-background:new 0 0 382.7 176.5;" xml:space="preserve">
<style type="text/css">
	.st0{fill:#1D1D1B;}
</style>
<rect x="1" y="20.7" class="st0" width="32.4" height="8.8"/>
<path class="st0" d="M11.7,72.3h10.9l2.6,9.9h8.4L21.7,35.5h-9.3L0.7,82.1H9L11.7,72.3z M17.1,51.4l3.2,12.1h-6.3L17.1,51.4z"/>
<polygon class="st0" points="74.8,20.7 66.3,20.7 58.7,30 51.1,20.7 42.5,20.7 42.5,82.1 51.4,82.1 51.4,34.1 58.7,43 65.9,34.1 
	65.9,82.1 74.8,82.1 "/>
<path class="st0" d="M116.5,38.1v-5.7c-0.1-2.1-0.7-4.1-1.6-5.8c-0.8-1.5-2.1-2.8-3.7-4c-1.7-1.3-4.2-1.9-7.4-1.9h-7
	c-3.2,0.1-5.7,0.7-7.4,1.9c-1.7,1.2-2.9,2.5-3.7,4c-0.9,1.7-1.4,3.6-1.5,5.8v10.4c0,0.1,0,0.3,0.1,0.9c0.1,0.5,0.5,1,1,1.4
	l22.3,17.3v8c0,0.6-0.1,1.1-0.3,1.5c-0.2,0.4-0.6,0.7-1.1,1c-0.5,0.3-1.3,0.5-2.3,0.5h-7c-1,0-1.8-0.2-2.3-0.5
	c-0.5-0.3-0.9-0.7-1.1-1c-0.2-0.5-0.4-1-0.4-1.6v-7.5h-8.9v7.5c0.1,2.2,0.6,4.2,1.5,5.9c0.8,1.5,2.1,2.8,3.7,4
	c1.7,1.2,4.2,1.8,7.4,1.8h7.1c3.2,0,5.6-0.6,7.4-1.8c1.7-1.2,3-2.5,3.8-4c0.9-1.7,1.4-3.7,1.5-5.9V59.6c0-0.2,0-0.5-0.1-0.8
	c-0.1-0.5-0.5-1-1-1.5L93,39.9v-7.4c0-0.5,0.1-1,0.3-1.5c0.2-0.4,0.6-0.7,1.1-1c0.5-0.3,1.3-0.5,2.3-0.5h7c1,0,1.8,0.2,2.3,0.5
	c0.5,0.3,0.9,0.7,1.1,1c0.3,0.5,0.4,1,0.4,1.5v5.6H116.5L116.5,38.1z"/>
<polygon class="st0" points="146.5,29.5 158.2,29.5 158.2,20.7 125.7,20.7 125.7,29.5 137.6,29.5 137.6,82.1 146.5,82.1 "/>
<polygon class="st0" points="199.6,73.4 176.2,73.4 176.2,54.5 196.5,54.5 196.5,45.7 176.2,45.7 176.2,29.5 198.7,29.5 198.7,20.7 
	167.3,20.7 167.3,82.1 199.6,82.1 "/>
<path class="st0" d="M241.4,82.1l-7.8-29c1.7-0.6,3.1-1.5,4.2-2.6c1.1-1.2,1.9-2.5,2.4-3.7c0.6-1.4,1-3,1-4.6v-9.8
	c-0.1-2.1-0.7-4.1-1.6-5.8c-0.8-1.5-2-2.8-3.7-4c-1.7-1.3-4.2-1.9-7.4-1.9h-19.7v61.4h8.9V54h6.8l7.7,28.2L241.4,82.1L241.4,82.1z
	 M230.8,44.7c-0.5,0.3-1.3,0.5-2.3,0.5h-10.8V29.5h10.8c1,0,1.8,0.2,2.3,0.5c0.5,0.3,0.9,0.7,1.1,1c0.2,0.5,0.4,1,0.4,1.5v9.8
	c0,0.6-0.1,1.1-0.3,1.5C231.7,44.1,231.4,44.4,230.8,44.7L230.8,44.7z"/>
<path class="st0" d="M277.7,80.3c1.7-1.2,2.9-2.5,3.7-4c0.9-1.7,1.4-3.7,1.5-5.9v-38c-0.1-2.2-0.6-4.1-1.5-5.8
	c-0.8-1.5-2.1-2.8-3.7-4c-1.7-1.3-4.2-1.9-7.5-1.9h-19.8v61.4h19.9C273.5,82.1,276,81.5,277.7,80.3L277.7,80.3z M259.4,73.4V29.5
	h10.8c1,0,1.8,0.1,2.3,0.5c0.5,0.3,0.9,0.7,1.1,1c0.2,0.5,0.4,1,0.4,1.5v37.9c0,0.6-0.1,1.1-0.3,1.5c-0.2,0.4-0.6,0.7-1.1,1
	c-0.5,0.3-1.3,0.5-2.3,0.5L259.4,73.4L259.4,73.4z"/>
<path class="st0" d="M303.5,68.6h9.7l2.6,13.6h8.9l-11.7-61.4h-9.2L292,82.1h8.9L303.5,68.6z M308.2,43.3l3.2,16.5h-6.4L308.2,43.3
	L308.2,43.3z"/>
<polygon class="st0" points="357.4,20.7 349.8,30 342.2,20.7 333.6,20.7 333.6,82.1 342.6,82.1 342.6,34.1 349.8,43 357.1,34.1 
	357.1,82.1 366,82.1 366,20.7 "/>
<path class="st0" d="M31.3,115.1v-4c-0.1-1.9-0.6-3.7-1.4-5.2c-0.7-1.3-1.9-2.5-3.4-3.6c-1.5-1.1-3.8-1.7-6.7-1.7h-6.3
	c-2.9,0.1-5.1,0.6-6.7,1.7c-1.5,1.1-2.6,2.3-3.4,3.6c-0.8,1.5-1.3,3.3-1.3,5.2V145c0,0.1,0,0.3,0.2,1.9c0.1,1.1,0.6,2.3,1.3,3.6
	c0.7,1.3,1.9,2.5,3.4,3.5c1.6,1,3.8,1.6,6.6,1.6h6.3c2.8,0,5.1-0.6,6.7-1.7c1.5-1.1,2.7-2.3,3.4-3.6c0.8-1.5,1.3-3.3,1.3-5.3v-4
	l-8.1,0.1v3.9c0,0.1,0,0.3-0.1,0.6c0,0.3-0.2,0.6-0.4,0.9c-0.2,0.3-0.5,0.6-1,0.8c-0.5,0.3-1.2,0.4-2,0.4h-6.2
	c-0.9,0-1.6-0.1-2.1-0.4c-0.4-0.2-0.8-0.5-0.9-0.8c-0.2-0.3-0.3-0.6-0.3-0.8c0-0.3,0-0.5,0-0.6v-33.9c0-0.5,0.1-0.9,0.3-1.3
	c0.2-0.3,0.5-0.6,1-0.9c0.4-0.3,1.1-0.4,2-0.4h6.2c0.9,0,1.6,0.1,2,0.4c0.5,0.3,0.8,0.6,1,0.9c0.2,0.4,0.3,0.9,0.3,1.3v4L31.3,115.1
	L31.3,115.1z"/>
<path class="st0" d="M41.4,100.5V145c0,0.1,0,0.3,0.2,1.9c0.1,1.1,0.6,2.3,1.3,3.6c0.7,1.3,1.9,2.5,3.4,3.5c1.5,1,3.7,1.6,6.5,1.6
	h6.3c2.8,0,5.1-0.6,6.6-1.7c1.5-1.1,2.7-2.3,3.4-3.6c0.8-1.5,1.3-3.3,1.3-5.3v-44.5h-8.1v44.4c0,0.1,0,0.3-0.1,0.6
	c0,0.3-0.2,0.6-0.3,0.9c-0.2,0.3-0.5,0.6-0.9,0.8c-0.4,0.3-1.1,0.4-2,0.4h-6.2c-0.9,0-1.5-0.1-2-0.4c-0.4-0.2-0.7-0.5-0.9-0.8
	c-0.2-0.3-0.3-0.6-0.3-0.9c0-0.3-0.1-0.5-0.1-0.6v-44.4H41.4z"/>
<path class="st0" d="M109.9,116.1V111c-0.1-1.9-0.6-3.7-1.4-5.2c-0.7-1.3-1.8-2.5-3.3-3.6c-1.5-1.1-3.8-1.7-6.7-1.7h-6.3
	c-2.9,0.1-5.1,0.6-6.7,1.7c-1.5,1.1-2.6,2.3-3.4,3.6c-0.8,1.5-1.3,3.3-1.3,5.2v9.3c0,0.1,0,0.3,0.1,0.8c0.1,0.5,0.4,0.9,0.9,1.2
	l19.9,15.4v7.1c0,0.5-0.1,1-0.3,1.3c-0.2,0.3-0.5,0.6-1,0.9c-0.4,0.3-1.1,0.4-2,0.4h-6.2c-0.9,0-1.6-0.1-2-0.4
	c-0.5-0.3-0.8-0.6-1-0.8c-0.2-0.4-0.3-0.9-0.3-1.4v-6.7h-8.1v6.8c0.1,2,0.5,3.8,1.3,5.3c0.7,1.3,1.9,2.5,3.4,3.6
	c1.5,1.1,3.8,1.7,6.7,1.7h6.3c2.8,0,5.1-0.6,6.6-1.7c1.5-1.1,2.7-2.3,3.4-3.6c0.8-1.5,1.3-3.3,1.3-5.3v-9.7c0-0.2,0-0.4-0.1-0.7
	c-0.1-0.5-0.4-0.9-0.9-1.4l-19.9-15.5v-6.6c0-0.5,0.1-0.9,0.3-1.3c0.2-0.3,0.5-0.6,1-0.9c0.4-0.3,1.1-0.4,2-0.4h6.2
	c0.9,0,1.6,0.1,2,0.4c0.5,0.3,0.8,0.6,1,0.8c0.2,0.4,0.3,0.9,0.3,1.3v5.1L109.9,116.1L109.9,116.1z"/>
<polygon class="st0" points="135.8,155.5 135.8,108.5 146.1,108.5 146.1,100.5 117,100.5 117,108.5 127.6,108.5 127.6,155.5 "/>
<path class="st0" d="M156.2,150.5c0.7,1.3,1.9,2.5,3.4,3.5c1.5,1,3.7,1.6,6.5,1.6h6.3c2.8,0,5.1-0.6,6.6-1.7
	c1.5-1.1,2.7-2.3,3.4-3.6c0.8-1.5,1.3-3.3,1.3-5.3v-34c-0.1-1.9-0.6-3.7-1.4-5.2c-0.7-1.3-1.9-2.5-3.3-3.6c-1.5-1.1-3.8-1.7-6.7-1.7
	h-6.3c-2.9,0.1-5.1,0.6-6.7,1.7c-1.5,1.1-2.6,2.3-3.4,3.6c-0.8,1.5-1.3,3.3-1.3,5.2V145c0,0.1,0,0.3,0.2,1.9
	C155.1,148,155.5,149.2,156.2,150.5L156.2,150.5z M163.2,109.8c0.2-0.3,0.5-0.6,1-0.9c0.4-0.3,1.1-0.4,2-0.4h6.2
	c0.9,0,1.6,0.1,2,0.4c0.5,0.3,0.8,0.6,1,0.8c0.2,0.4,0.3,0.9,0.3,1.3v33.9c0,0.1,0,0.3-0.1,0.6c0,0.3-0.2,0.5-0.3,0.9
	c-0.2,0.3-0.5,0.6-0.9,0.8c-0.4,0.3-1.1,0.4-2,0.4h-6.2c-0.9,0-1.5-0.1-2-0.4c-0.4-0.2-0.7-0.5-0.9-0.8c-0.2-0.3-0.3-0.6-0.3-0.9
	c0-0.3-0.1-0.5-0.1-0.6v-33.8C162.9,110.6,163,110.2,163.2,109.8L163.2,109.8z"/>
<polygon class="st0" points="224.7,155.5 224.7,100.5 216.9,100.5 210.2,108.8 203.4,100.5 195.6,100.5 195.6,155.5 203.8,155.5 
	203.8,112.7 210.2,120.6 216.6,112.7 216.6,155.5 "/>
<path class="st0" d="M264,116.1V111c-0.1-1.9-0.6-3.7-1.4-5.2c-0.7-1.3-1.8-2.5-3.3-3.6c-1.5-1.1-3.8-1.7-6.7-1.7h-6.3
	c-2.9,0.1-5.1,0.6-6.7,1.7c-1.5,1.1-2.6,2.3-3.4,3.6c-0.8,1.5-1.3,3.3-1.3,5.2v9.3c0,0.1,0,0.3,0.1,0.8c0.1,0.5,0.4,0.9,0.9,1.2
	l19.9,15.4v7.1c0,0.5-0.1,1-0.3,1.3c-0.2,0.3-0.5,0.6-1,0.9c-0.4,0.3-1.1,0.4-2,0.4h-6.2c-0.9,0-1.6-0.1-2-0.4
	c-0.5-0.3-0.8-0.6-1-0.8c-0.2-0.4-0.3-0.9-0.3-1.4v-6.7H235v6.8c0.1,2,0.5,3.8,1.3,5.3c0.7,1.3,1.9,2.5,3.4,3.6
	c1.5,1.1,3.8,1.7,6.7,1.7h6.3c2.8,0,5.1-0.6,6.6-1.7c1.5-1.1,2.7-2.3,3.4-3.6c0.8-1.5,1.3-3.3,1.3-5.3v-9.7c0-0.2,0-0.4-0.1-0.7
	c-0.1-0.5-0.4-0.9-0.9-1.4l-19.9-15.5v-6.6c0-0.5,0.1-0.9,0.3-1.3c0.2-0.3,0.5-0.6,1-0.9c0.4-0.3,1.1-0.4,2-0.4h6.2
	c0.9,0,1.6,0.1,2,0.4c0.5,0.3,0.8,0.6,1,0.8c0.2,0.4,0.3,0.9,0.3,1.3v5.1L264,116.1L264,116.1z"/>
<path class="st0" d="M325.9,115.1v-4c-0.1-1.9-0.6-3.7-1.4-5.2c-0.7-1.3-1.9-2.5-3.4-3.6c-1.5-1.1-3.8-1.7-6.7-1.7h-6.3
	c-2.9,0.1-5.1,0.6-6.7,1.7c-1.5,1.1-2.6,2.3-3.4,3.6c-0.8,1.5-1.3,3.3-1.3,5.2V145c0,0.1,0,0.3,0.2,1.9c0.1,1.1,0.6,2.3,1.3,3.6
	c0.7,1.3,1.9,2.5,3.4,3.5c1.6,1,3.8,1.6,6.6,1.6h6.3c2.8,0,5.1-0.6,6.7-1.7c1.5-1.1,2.7-2.3,3.4-3.6c0.8-1.5,1.3-3.3,1.3-5.3v-4
	l-8.1,0.1v3.9c0,0.1,0,0.3-0.1,0.6c0,0.3-0.2,0.6-0.3,0.9c-0.2,0.3-0.5,0.6-0.9,0.8c-0.5,0.3-1.2,0.4-2,0.4h-6.2
	c-0.9,0-1.6-0.1-2.1-0.4c-0.4-0.2-0.7-0.5-0.9-0.8c-0.2-0.3-0.3-0.6-0.3-0.8c0-0.3,0-0.5,0-0.6v-33.9c0-0.5,0.1-0.9,0.3-1.3
	c0.2-0.3,0.5-0.6,1-0.9c0.4-0.3,1.1-0.4,2-0.4h6.2c0.9,0,1.6,0.1,2,0.4c0.5,0.3,0.8,0.6,1,0.9c0.2,0.4,0.3,0.9,0.3,1.3v4
	L325.9,115.1L325.9,115.1z"/>
<rect x="1" y="0.9" class="st0" width="365" height="8"/>
<rect x="2.1" y="167.5" class="st0" width="362.7" height="8"/>
<rect x="335.6" y="147.5" class="st0" width="29.1" height="8"/>
<path class="st0" d="M360,102.2c-1.6-1.1-3.8-1.7-6.6-1.7h-6.3c-2.8,0-5,0.5-6.5,1.6c-1.5,1-2.7,2.2-3.4,3.5
	c-0.7,1.3-1.2,2.5-1.3,3.6c-0.2,1.6-0.2,1.8-0.2,1.9v20.6c0.1,2,0.5,3.8,1.3,5.3c0.7,1.3,1.9,2.5,3.3,3.6c1.5,1.1,3.8,1.7,6.7,1.7
	h6.3c2.9,0,5.1-0.6,6.7-1.7c1.5-1.1,2.6-2.3,3.4-3.7c0.8-1.5,1.3-3.3,1.4-5.3V111c-0.1-1.9-0.5-3.7-1.3-5.2
	C362.7,104.5,361.5,103.3,360,102.2L360,102.2z M356.6,131.6c0,0.5-0.1,1-0.3,1.3c-0.2,0.3-0.5,0.6-1,0.9c-0.4,0.3-1.1,0.4-2,0.4
	h-6.3c-0.9,0-1.6-0.1-2-0.4c-0.5-0.3-0.8-0.6-1-0.8c-0.2-0.4-0.3-0.9-0.3-1.4v-20.5c0-0.1,0-0.2,0.1-0.5c0-0.3,0.2-0.6,0.3-0.9
	c0.2-0.3,0.5-0.6,0.9-0.8c0.4-0.3,1.1-0.4,2-0.4h6.3c0.9,0,1.5,0.1,2,0.4c0.4,0.3,0.8,0.5,0.9,0.8c0.2,0.3,0.3,0.6,0.3,0.9
	c0,0.3,0.1,0.5,0.1,0.5V131.6z"/>
</svg>
