<?xml version="1.0" encoding="utf-8"?>
<!-- Generator: Adobe Illustrator 27.8.1, SVG Export Plug-In . SVG Version: 6.00 Build 0)  -->
<svg version="1.1" id="Laag_1" xmlns="http://www.w3.org/2000/svg" xmlns:xlink="http://www.w3.org/1999/xlink" x="0px" y="0px"
	 viewBox="0 0 382.7 176.5" style="enable-background:new 0 0 382.7 176.5;" xml:space="preserve">
<style type="text/css">
	.st0{fill:#1D1D1B;}
</style>
<rect x="1.6" y="167.1" class="st0" width="355.4" height="7.9"/>
<rect x="1.1" y="20.8" class="st0" width="31.6" height="8.7"/>
<path class="st0" d="M11.5,72.1h10.6l2.6,9.8h8.2L21.4,35.5h-9L0.8,81.9H9L11.5,72.1z M13.8,63.3l3.1-12l3.1,12H13.8z"/>
<polygon class="st0" points="73.3,20.8 64.9,20.8 57.5,30.1 50,20.8 41.6,20.8 41.6,81.9 50.4,81.9 50.4,34.1 57.5,43 64.5,34.1 
	64.5,81.9 73.3,81.9 "/>
<path class="st0" d="M113.9,38.1v-5.6c-0.1-2.1-0.6-4.1-1.5-5.7c-0.8-1.4-2-2.8-3.6-4c-1.7-1.2-4.1-1.9-7.3-1.9h-6.8
	c-3.1,0.1-5.6,0.7-7.2,1.9c-1.6,1.2-2.9,2.5-3.6,4c-0.9,1.7-1.4,3.6-1.4,5.8v10.3c0,0.1,0,0.3,0.1,0.9c0.1,0.5,0.5,1,1,1.3
	l21.8,17.2v8c0,0.6-0.1,1.1-0.3,1.5c-0.2,0.4-0.6,0.7-1.1,1c-0.5,0.3-1.2,0.5-2.3,0.5h-6.8c-1,0-1.8-0.2-2.3-0.5
	c-0.5-0.3-0.9-0.7-1.1-1c-0.2-0.5-0.4-1-0.4-1.6v-7.4h-8.7v7.5c0.1,2.2,0.5,4.2,1.4,5.8c0.8,1.4,2,2.8,3.6,4
	c1.7,1.2,4.1,1.8,7.3,1.8h6.9c3.1,0,5.5-0.6,7.2-1.8c1.7-1.2,2.9-2.5,3.7-4c0.9-1.7,1.4-3.6,1.4-5.9V59.5c0-0.2,0-0.5-0.1-0.8
	c-0.1-0.5-0.5-1-1-1.5L91,39.8v-7.4c0-0.5,0.1-1,0.3-1.5c0.2-0.4,0.6-0.7,1.1-1c0.5-0.3,1.2-0.5,2.2-0.5h6.8c1,0,1.8,0.2,2.2,0.5
	c0.5,0.3,0.9,0.7,1.1,1c0.2,0.5,0.4,1,0.4,1.5v5.6H113.9L113.9,38.1z"/>
<polygon class="st0" points="154.6,20.8 122.9,20.8 122.9,29.5 134.5,29.5 134.5,81.9 143.3,81.9 143.3,29.5 154.6,29.5 "/>
<polygon class="st0" points="195.1,73.1 172.2,73.1 172.2,54.4 192,54.4 192,45.7 172.2,45.7 172.2,29.5 194.2,29.5 194.2,20.8 
	163.5,20.8 163.5,81.9 195.1,81.9 "/>
<path class="st0" d="M235.9,81.9L228.4,53c1.7-0.6,3.1-1.5,4.1-2.6c1.1-1.2,1.9-2.4,2.3-3.6c0.6-1.4,0.9-3,1-4.6v-9.8
	c-0.1-2.1-0.6-4.1-1.5-5.7c-0.8-1.4-2-2.8-3.6-4c-1.7-1.2-4.1-1.9-7.3-1.9H204v61.1h8.7v-28h6.6l7.5,28L235.9,81.9L235.9,81.9z
	 M212.8,29.5h10.5c1,0,1.8,0.1,2.3,0.5c0.5,0.3,0.9,0.7,1.1,1c0.2,0.5,0.4,1,0.4,1.5v9.7c0,0.6-0.1,1.1-0.3,1.5
	c-0.2,0.4-0.6,0.7-1.1,1c-0.5,0.3-1.2,0.5-2.3,0.5h-10.5L212.8,29.5L212.8,29.5z"/>
<path class="st0" d="M271.4,80c1.6-1.2,2.9-2.5,3.7-4c0.9-1.7,1.4-3.6,1.4-5.9V32.5c-0.1-2.1-0.5-4.1-1.5-5.8c-0.8-1.4-2-2.8-3.6-4
	c-1.7-1.2-4.1-1.9-7.3-1.9h-19.3v61.1h19.4C267.3,81.9,269.7,81.3,271.4,80 M267.7,70.1c0,0.6-0.1,1.1-0.3,1.5
	c-0.2,0.4-0.6,0.7-1.1,1c-0.5,0.3-1.3,0.5-2.3,0.5h-10.5V29.5H264c1,0,1.8,0.1,2.3,0.5c0.5,0.3,0.9,0.7,1.1,1c0.2,0.5,0.4,1,0.4,1.5
	V70.1L267.7,70.1z"/>
<path class="st0" d="M296.5,68.4h9.4l2.6,13.5h8.7l-11.4-61.1h-9l-11.4,61.1h8.7L296.5,68.4z M298.1,59.7l3.1-16.4l3.1,16.4H298.1
	L298.1,59.7z"/>
<polygon class="st0" points="349.2,20.8 341.8,30.1 334.4,20.8 326,20.8 326,81.9 334.7,81.9 334.7,34.1 341.8,43 348.9,34.1 
	348.9,81.9 357.6,81.9 357.6,20.8 "/>
<polygon class="st0" points="9.5,131.8 27.2,131.8 27.2,123.9 9.5,123.9 9.5,108 30,108 30,100.1 1.6,100.1 1.6,154.8 9.5,154.8 "/>
<path class="st0" d="M65.9,123.5c0.5-1.3,0.8-2.7,0.9-4.1v-8.8c-0.1-1.9-0.6-3.6-1.4-5.2c-0.7-1.3-1.8-2.5-3.3-3.6
	c-1.5-1.1-3.7-1.7-6.5-1.7H38.4v54.7h7.9v-25h5.8l6.7,25H67L60.2,129c1.5-0.5,2.7-1.3,3.6-2.3C64.8,125.6,65.5,124.5,65.9,123.5
	L65.9,123.5z M46.3,108.1h9.4c0.9,0,1.6,0.1,2,0.4c0.4,0.3,0.8,0.6,0.9,0.8c0.2,0.4,0.3,0.9,0.3,1.3v8.7c0,0.5-0.1,0.9-0.3,1.3
	c-0.2,0.3-0.5,0.6-1,0.9c-0.4,0.3-1.1,0.4-2,0.4h-9.4V108.1L46.3,108.1z"/>
<polygon class="st0" points="104.5,108 104.5,100.1 76.8,100.1 76.8,154.8 105.2,154.8 105.2,146.9 84.8,146.9 84.8,130.3 
	102.5,130.3 102.5,122.3 84.8,122.3 84.8,108 "/>
<polygon class="st0" points="143.5,108 143.5,100.1 115.1,100.1 115.1,108 125.5,108 125.5,146.9 115.1,146.9 115.1,154.8 
	143.5,154.8 143.5,146.9 133.4,146.9 133.4,108 "/>
<path class="st0" d="M181.9,114.5v-3.9c-0.1-1.9-0.6-3.7-1.4-5.2c-0.7-1.3-1.8-2.5-3.3-3.6c-1.5-1.1-3.7-1.7-6.5-1.7h-6.1
	c-2.8,0.1-5,0.6-6.5,1.7c-1.5,1.1-2.6,2.3-3.3,3.6c-0.8,1.5-1.2,3.3-1.3,5.3v33.7c0.1,2,0.5,3.7,1.3,5.3c0.7,1.3,1.8,2.5,3.3,3.6
	c1.5,1.1,3.7,1.6,6.6,1.6h6.1c2.8,0,4.9-0.6,6.5-1.6c1.5-1.1,2.6-2.3,3.3-3.6c0.8-1.5,1.2-3.3,1.3-5.3v-20.7h-13.1v7.9h5.1v12.8
	c0,0.1,0,0.3,0,0.6c0,0.2-0.1,0.5-0.3,0.8c-0.2,0.3-0.5,0.6-1,0.8c-0.4,0.3-1.1,0.4-1.9,0.4h-6c-0.9,0-1.6-0.1-2-0.4
	c-0.4-0.2-0.7-0.5-0.9-0.8c-0.2-0.3-0.3-0.6-0.3-0.8c0-0.3,0-0.5,0-0.6v-33.7c0-0.5,0.1-0.9,0.3-1.3c0.2-0.3,0.5-0.7,1-1
	c0.4-0.3,1.1-0.4,2-0.4h6c0.9,0,1.5,0.1,2,0.4c0.5,0.3,0.8,0.6,1,0.9c0.2,0.4,0.3,0.9,0.3,1.3v3.9L181.9,114.5L181.9,114.5z"/>
<polygon class="st0" points="221.9,154.8 221.9,100.1 214,100.1 214,123.5 201.4,123.5 201.4,100.1 193.5,100.1 193.5,154.8 
	201.4,154.8 201.4,131.5 214,131.5 214,154.8 "/>
<polygon class="st0" points="248.6,154.8 248.6,108 258.7,108 258.7,100.1 230.2,100.1 230.2,108 240.6,108 240.6,154.8 "/>
<path class="st0" d="M319,114.6v-4c-0.1-1.9-0.6-3.6-1.4-5.2c-0.7-1.3-1.8-2.5-3.3-3.6c-1.5-1.1-3.7-1.7-6.5-1.7h-6.1
	c-2.8,0.1-5,0.6-6.5,1.7c-1.5,1.1-2.6,2.3-3.3,3.6c-0.8,1.5-1.2,3.2-1.3,5.2v33.7c0,0.1,0,0.3,0.2,1.9c0.1,1.1,0.6,2.3,1.3,3.6
	c0.7,1.3,1.8,2.4,3.3,3.5c1.5,1,3.7,1.6,6.4,1.6h6.1c2.8,0,5-0.6,6.5-1.7c1.5-1.1,2.6-2.3,3.3-3.6c0.8-1.5,1.2-3.3,1.3-5.3v-4
	l-7.9,0.1v3.8c0,0.1,0,0.3-0.1,0.6c0,0.3-0.2,0.6-0.3,0.9c-0.2,0.3-0.5,0.6-0.9,0.8c-0.5,0.3-1.1,0.4-2,0.4h-6c-0.9,0-1.6-0.1-2-0.4
	c-0.4-0.2-0.7-0.5-0.9-0.8c-0.2-0.3-0.3-0.6-0.3-0.8c0-0.3,0-0.5,0-0.6v-33.7c0-0.5,0.1-0.9,0.3-1.3c0.2-0.3,0.5-0.6,1-0.9
	c0.4-0.3,1.1-0.4,2-0.4h6c0.9,0,1.6,0.1,2,0.4c0.4,0.3,0.8,0.6,0.9,0.8c0.2,0.4,0.3,0.9,0.3,1.3v3.9L319,114.6L319,114.6z"/>
<path class="st0" d="M352.3,101.8c-1.5-1.1-3.7-1.7-6.5-1.7h-6.2c-2.7,0-4.9,0.5-6.4,1.6c-1.5,1-2.6,2.2-3.3,3.5
	c-0.7,1.3-1.1,2.5-1.3,3.6c-0.2,1.6-0.2,1.8-0.2,1.9v20.5c0.1,2,0.5,3.7,1.3,5.2c0.7,1.3,1.8,2.5,3.3,3.6c1.5,1.1,3.7,1.7,6.5,1.7
	h6.2c2.8,0,5-0.6,6.5-1.6c1.5-1.1,2.6-2.3,3.3-3.6c0.8-1.5,1.3-3.3,1.4-5.3v-20.5c-0.1-1.9-0.5-3.7-1.3-5.2
	C354.9,104.1,353.8,102.9,352.3,101.8L352.3,101.8z M336.4,110.7c0-0.1,0-0.2,0.1-0.5c0-0.3,0.2-0.6,0.3-0.9
	c0.2-0.3,0.5-0.6,0.9-0.8c0.4-0.3,1.1-0.4,1.9-0.4h6.1c0.8,0,1.5,0.1,1.9,0.4c0.4,0.2,0.7,0.5,0.9,0.8c0.2,0.3,0.3,0.6,0.3,0.9
	c0,0.3,0.1,0.5,0.1,0.5v20.4c0,0.5-0.1,1-0.3,1.3c-0.2,0.3-0.5,0.6-1,0.9c-0.4,0.3-1.1,0.4-2,0.4h-6.1c-0.9,0-1.6-0.1-2-0.4
	c-0.4-0.3-0.8-0.6-0.9-0.8c-0.2-0.4-0.3-0.9-0.3-1.4V110.7L336.4,110.7z"/>
<rect x="328.5" y="146.9" class="st0" width="28.5" height="7.9"/>
<rect x="1.1" y="1" class="st0" width="356.5" height="7.9"/>
</svg>
