<?xml version="1.0" encoding="utf-8"?>
<!-- Generator: Adobe Illustrator 27.8.1, SVG Export Plug-In . SVG Version: 6.00 Build 0)  -->
<svg version="1.1" id="Laag_1" xmlns="http://www.w3.org/2000/svg" xmlns:xlink="http://www.w3.org/1999/xlink" x="0px" y="0px"
	 viewBox="0 0 382.7 176.5" style="enable-background:new 0 0 382.7 176.5;" xml:space="preserve">
<style type="text/css">
	.st0{fill:#020203;}
</style>
<polygon class="st0" points="19,143.4 13.3,136.4 7.6,143.4 7.6,104.5 0.1,104.5 0.1,154.8 7.2,154.8 13.3,147.3 19.3,154.8 
	26.4,154.8 26.4,104.5 19,104.5 "/>
<path class="st0" d="M49.3,136.4h-4.7l2.3-12.6L49.3,136.4z M43.2,104.5l-9.4,50.3h7.4l2.1-11.1h7.5l2.1,11.1h7.4l-9.4-50.3H43.2z"
	/>
<path class="st0" d="M75,112h8.5c0.8,0,1.4,0.1,1.8,0.4c0.4,0.3,0.7,0.5,0.8,0.7c0.2,0.4,0.3,0.8,0.3,1.2v8c0,0.4-0.1,0.8-0.3,1.1
	c-0.2,0.3-0.5,0.6-0.9,0.8c-0.4,0.2-1,0.3-1.8,0.3H75V112L75,112z M91.1,129c0.9-1,1.5-2,1.9-3c0.5-1.2,0.8-2.5,0.8-3.8v-8
	c-0.1-1.8-0.5-3.4-1.3-4.8c-0.6-1.2-1.7-2.3-3-3.3c-1.4-1-3.4-1.6-6-1.6H67.6v50.3H75v-23h5.2l6.2,23H94l-6.2-23.7
	C89.2,130.7,90.3,130,91.1,129z"/>
<polygon class="st0" points="108.9,132.3 125.1,132.3 125.1,124.9 108.9,124.9 108.9,112 126.9,112 126.9,104.5 101.4,104.5 
	101.4,154.9 127.6,154.9 127.6,147.4 108.9,147.4 "/>
<polygon class="st0" points="154,126 142.6,126 142.6,104.5 135.2,104.5 135.2,154.8 142.6,154.8 142.6,133.4 154,133.4 154,154.8 
	161.4,154.8 161.4,104.5 154,104.5 "/>
<path class="st0" d="M187.7,145.6c0,0.2-0.1,0.5-0.3,0.8c-0.1,0.3-0.4,0.5-0.8,0.7c-0.4,0.2-1,0.3-1.7,0.3h-5.6
	c-0.8,0-1.3-0.1-1.7-0.3c-0.4-0.2-0.6-0.5-0.8-0.7c-0.2-0.3-0.3-0.6-0.3-0.8c0-0.3-0.1-0.4-0.1-0.5v-30.8c0-0.4,0.2-0.8,0.3-1.2
	c0.2-0.3,0.5-0.6,0.8-0.8c0.2-0.2,0.7-0.3,1.7-0.3h5.6c0.8,0,1.4,0.1,1.8,0.4c0.4,0.2,0.7,0.5,0.8,0.7c0.2,0.4,0.3,0.8,0.3,1.2v30.9
	C187.7,145.2,187.7,145.3,187.7,145.6L187.7,145.6z M193.9,109.4c-0.6-1.2-1.7-2.3-3-3.3c-1.4-1-3.4-1.6-6-1.6h-5.6
	c-2.6,0-4.6,0.6-6,1.6c-1.4,1-2.4,2.1-3,3.3c-0.7,1.4-1.1,3-1.2,4.8v30.9c0,0.1,0,0.4,0.2,1.7c0.1,1,0.5,2.2,1.2,3.3
	c0.7,1.2,1.7,2.3,3,3.2c1.4,1,3.4,1.4,5.9,1.4h5.7c2.6,0,4.6-0.5,6-1.5c1.4-1,2.4-2.1,3.1-3.3c0.7-1.4,1.1-3,1.2-4.9v-31
	C195,112.4,194.6,110.8,193.9,109.4L193.9,109.4z"/>
<path class="st0" d="M221.5,145.1c0,0.1,0,0.3-0.1,0.5c0,0.2-0.1,0.5-0.3,0.8c-0.1,0.3-0.4,0.5-0.8,0.7c-0.4,0.2-1,0.3-1.7,0.3h-5.6
	c-0.8,0-1.3-0.1-1.7-0.3c-0.4-0.2-0.6-0.5-0.8-0.7c-0.2-0.3-0.3-0.6-0.3-0.8c0-0.3-0.1-0.4-0.1-0.5v-40.6h-7.4v40.6
	c0,0.1,0,0.3,0.2,1.7c0.1,1,0.5,2.2,1.2,3.3c0.7,1.2,1.7,2.3,3,3.2c1.4,1,3.4,1.4,5.9,1.4h5.7c2.6,0,4.6-0.5,6-1.5
	c1.4-1,2.4-2.1,3.1-3.3c0.7-1.4,1.1-3,1.2-4.9v-40.6h-7.4L221.5,145.1L221.5,145.1z"/>
<path class="st0" d="M262.8,119v-4.8c-0.1-1.8-0.5-3.4-1.3-4.8c-0.6-1.2-1.7-2.3-3-3.3c-1.4-1-3.4-1.6-6-1.6h-5.6
	c-2.6,0-4.6,0.6-6,1.6c-1.4,1-2.4,2.1-3,3.3c-0.7,1.4-1.1,3-1.2,4.8v8.5c0,0.1,0,0.3,0.1,0.7c0.1,0.5,0.4,0.9,0.8,1.2l17.8,14.1v6.4
	c0,0.5-0.1,0.9-0.3,1.2c-0.2,0.3-0.5,0.6-0.9,0.8c-0.4,0.2-1,0.4-1.8,0.4h-5.6c-0.8,0-1.4-0.1-1.8-0.3c-0.4-0.2-0.7-0.5-0.8-0.7
	c-0.2-0.4-0.3-0.8-0.3-1.2v-6.2h-7.4v6.3c0,1.8,0.5,3.5,1.2,4.9c0.7,1.2,1.7,2.3,3,3.3c1.4,1,3.4,1.5,6,1.5h5.7c2.6,0,4.6-0.5,6-1.5
	c1.4-1,2.4-2.1,3.1-3.3c0.7-1.4,1.1-3,1.2-4.9v-8.8c0-0.2,0-0.4-0.1-0.7c-0.1-0.4-0.4-0.9-0.9-1.3L244,120.2v-6
	c0-0.4,0.1-0.8,0.3-1.1c0.2-0.3,0.5-0.6,0.9-0.8c0.4-0.2,1-0.4,1.8-0.4h5.6c0.8,0,1.4,0.1,1.8,0.3c0.4,0.3,0.7,0.5,0.8,0.7
	c0.2,0.4,0.3,0.8,0.3,1.2v4.7H262.8L262.8,119z"/>
<polygon class="st0" points="277.8,132.3 294.1,132.3 294.1,124.9 277.8,124.9 277.8,112 295.9,112 295.9,104.5 270.4,104.5 
	270.4,154.9 296.6,154.9 296.6,147.4 277.8,147.4 "/>
<path class="st0" d="M349.1,118v-3.7c-0.1-1.8-0.5-3.4-1.3-4.8c-0.7-1.2-1.7-2.3-3-3.3c-1.4-1-3.4-1.6-6-1.6h-5.6
	c-2.6,0-4.6,0.6-6,1.6c-1.4,1-2.4,2.1-3,3.3c-0.7,1.4-1.1,3-1.2,4.8v30.9c0,0.1,0,0.3,0.2,1.7c0.1,1,0.5,2.2,1.2,3.3
	c0.7,1.2,1.7,2.3,3.1,3.2c1.4,1,3.4,1.4,5.9,1.4h5.6c2.6,0,4.6-0.5,6-1.5c1.4-1,2.4-2.1,3.1-3.3c0.7-1.4,1.2-3,1.2-4.9v-3.7
	l-7.4,0.1v3.6c0,0.1,0,0.2-0.1,0.5c0,0.2-0.1,0.5-0.3,0.8c-0.1,0.3-0.4,0.5-0.8,0.7c-0.4,0.2-1,0.3-1.8,0.3h-5.5
	c-0.8,0-1.4-0.1-1.8-0.3c-0.4-0.2-0.6-0.5-0.8-0.7c-0.2-0.3-0.3-0.5-0.3-0.7c0-0.3,0-0.5,0-0.5v-30.9c0-0.4,0.1-0.8,0.2-1.1
	c0.2-0.3,0.5-0.6,0.9-0.8c0.4-0.2,1-0.4,1.8-0.4h5.5c0.8,0,1.4,0.1,1.8,0.4c0.4,0.3,0.7,0.5,0.8,0.7c0.2,0.4,0.3,0.8,0.3,1.2v3.7
	L349.1,118L349.1,118z"/>
<rect x="356.2" y="147.4" class="st0" width="26.3" height="7.4"/>
<rect x="0.2" y="168.8" class="st0" width="382.3" height="7.4"/>
<rect x="0.2" y="0.1" class="st0" width="382.3" height="7.4"/>
<path class="st0" d="M363.7,113.8c0-0.2,0.1-0.5,0.3-0.8c0.1-0.3,0.4-0.5,0.8-0.7c0.4-0.2,1-0.3,1.7-0.3h5.6c0.8,0,1.3,0.1,1.7,0.3
	c0.4,0.2,0.6,0.5,0.8,0.7c0.2,0.3,0.3,0.6,0.3,0.8c0,0.3,0.1,0.4,0.1,0.5V133c0,0.5-0.1,0.9-0.2,1.2c-0.2,0.3-0.5,0.6-0.9,0.8
	c-0.4,0.2-1,0.4-1.8,0.4h-5.6c-0.8,0-1.4-0.1-1.8-0.4c-0.4-0.2-0.7-0.5-0.8-0.7c-0.2-0.4-0.3-0.8-0.3-1.2v-18.7
	C363.7,114.3,363.7,114.1,363.7,113.8L363.7,113.8z M381.3,109.4c-0.6-1.2-1.7-2.3-3.1-3.3c-1.4-1-3.4-1.6-6-1.6h-5.7
	c-2.5,0-4.5,0.5-5.9,1.4c-1.4,0.9-2.4,2-3.1,3.2c-0.6,1.2-1,2.3-1.2,3.3c-0.2,1.3-0.2,1.6-0.2,1.7V133c0,1.8,0.5,3.5,1.2,4.9
	c0.6,1.2,1.7,2.3,3,3.3c1.4,1,3.4,1.6,6,1.6h5.7c2.6,0,4.6-0.5,6-1.5c1.4-1,2.4-2.1,3-3.4c0.7-1.4,1.2-3,1.3-4.9v-18.8
	C382.4,112.4,382,110.8,381.3,109.4L381.3,109.4z"/>
<path class="st0" d="M20.6,67.9H14L17.3,55L20.6,67.9L20.6,67.9z M12.5,38.1L0.2,87.8h8.7l2.7-10.5H23l2.7,10.5h8.7L22.2,38.1H12.5z
	"/>
<rect x="0.4" y="22.4" class="st0" width="33.9" height="9.3"/>
<polygon class="st0" points="60.8,32.3 52.9,22.4 43.9,22.4 43.9,87.8 53.2,87.8 53.2,36.7 60.8,46.1 68.4,36.7 68.4,87.8 
	77.8,87.8 77.8,22.4 68.8,22.4 "/>
<path class="st0" d="M121.3,40.9v-6c-0.1-2.3-0.7-4.4-1.6-6.1c-0.8-1.5-2.2-3-3.9-4.3c-1.8-1.3-4.4-2-7.8-2h-7.3
	c-3.4,0.1-6,0.8-7.8,2c-1.8,1.3-3.1,2.7-3.9,4.3c-1,1.8-1.5,3.9-1.5,6.2v11.1c0,0.1,0,0.3,0.2,0.9c0.1,0.6,0.5,1.1,1,1.4L112,66.7
	v8.5c0,0.6-0.1,1.2-0.4,1.6c-0.2,0.4-0.6,0.8-1.2,1.1c-0.5,0.3-1.3,0.5-2.4,0.5h-7.3c-1.1,0-1.9-0.2-2.4-0.5c-0.5-0.3-0.9-0.7-1.2-1
	c-0.3-0.5-0.4-1.1-0.4-1.7v-8h-9.3v8c0.1,2.4,0.6,4.5,1.5,6.3c0.8,1.5,2.2,3,3.9,4.3c1.8,1.3,4.4,2,7.8,2h7.4c3.3,0,5.9-0.7,7.7-2
	c1.8-1.3,3.1-2.7,4-4.3c1-1.8,1.5-3.9,1.5-6.3V63.8c0-0.2,0-0.5-0.1-0.8c-0.2-0.5-0.5-1.1-1.1-1.6L96.8,42.8v-7.9
	c0-0.6,0.1-1.1,0.4-1.6c0.2-0.4,0.6-0.8,1.2-1.1c0.5-0.3,1.3-0.5,2.4-0.5h7.3c1.1,0,1.9,0.2,2.4,0.5c0.5,0.3,0.9,0.7,1.2,1.1
	c0.3,0.5,0.4,1,0.4,1.6v6H121.3L121.3,40.9z"/>
<polygon class="st0" points="131,31.7 143.5,31.7 143.5,87.8 152.8,87.8 152.8,31.7 165,31.7 165,22.4 131,22.4 "/>
<polygon class="st0" points="183.8,58.4 205.1,58.4 205.1,49 183.8,49 183.8,31.7 207.4,31.7 207.4,22.4 174.5,22.4 174.5,87.8 
	208.4,87.8 208.4,78.5 183.8,78.5 "/>
<path class="st0" d="M227.3,31.7h11.3c1.1,0,1.9,0.2,2.4,0.5c0.5,0.3,0.9,0.7,1.2,1c0.3,0.5,0.4,1,0.4,1.6v10.4
	c0,0.6-0.1,1.1-0.3,1.6c-0.3,0.4-0.6,0.8-1.2,1.1c-0.5,0.3-1.3,0.5-2.4,0.5h-11.3V31.7L227.3,31.7z M248.4,54.1
	c1.1-1.3,2-2.6,2.5-3.9c0.6-1.5,1-3.2,1.1-4.9V34.8c-0.1-2.3-0.7-4.4-1.6-6.1c-0.8-1.5-2.2-3-3.9-4.3c-1.8-1.3-4.4-2-7.8-2h-20.6
	v65.4h9.3v-30h7.1l8.1,30h9.7L244,56.9C245.8,56.3,247.3,55.4,248.4,54.1L248.4,54.1z"/>
<path class="st0" d="M270.9,31.7h11.3c1.1,0,1.9,0.2,2.4,0.5c0.5,0.3,0.9,0.7,1.2,1c0.3,0.5,0.4,1.1,0.4,1.6v40.4
	c0,0.6-0.1,1.2-0.3,1.6c-0.3,0.4-0.6,0.8-1.2,1.1c-0.5,0.3-1.3,0.5-2.4,0.5h-11.3V31.7z M290.1,24.4c-1.8-1.3-4.4-2-7.8-2h-20.7
	v65.4h20.8c3.3,0,5.9-0.7,7.7-2c1.8-1.3,3.1-2.7,3.9-4.3c1-1.8,1.5-3.9,1.5-6.3V34.9c-0.1-2.3-0.6-4.4-1.6-6.2
	C293.2,27.1,291.8,25.7,290.1,24.4L290.1,24.4z"/>
<path class="st0" d="M325.4,64h-6.7l3.3-17.6L325.4,64L325.4,64z M317.3,22.4L305,87.8h9.3l2.7-14.5h10.1l2.7,14.5h9.3l-12.2-65.4
	H317.3L317.3,22.4z"/>
<polygon class="st0" points="373.5,22.4 365.6,32.3 357.6,22.4 348.6,22.4 348.6,87.8 358,87.8 358,36.7 365.6,46.1 373.1,36.7 
	373.1,87.8 382.5,87.8 382.5,22.4 "/>
</svg>
